<?xml version="1.0" encoding="UTF-8" standalone="no"?>
<svg
   xmlns:dc="http://purl.org/dc/elements/1.1/"
   xmlns:cc="http://creativecommons.org/ns#"
   xmlns:rdf="http://www.w3.org/1999/02/22-rdf-syntax-ns#"
   xmlns:svg="http://www.w3.org/2000/svg"
   xmlns="http://www.w3.org/2000/svg"
   xmlns:sodipodi="http://sodipodi.sourceforge.net/DTD/sodipodi-0.dtd"
   xmlns:inkscape="http://www.inkscape.org/namespaces/inkscape"
   width="4.4901681mm"
   height="4.1409059mm"
   viewBox="0 0 4.4901681 4.1409059"
   version="1.1"
   id="svg8"
   inkscape:version="1.0.1 (3bc2e813f5, 2020-09-07)"
   sodipodi:docname="hash.svg">
  <defs
     id="defs2" />
  <sodipodi:namedview
     id="base"
     pagecolor="#ffffff"
     bordercolor="#666666"
     borderopacity="1.0"
     inkscape:pageopacity="0.0"
     inkscape:pageshadow="2"
     inkscape:zoom="15.839192"
     inkscape:cx="16.31393"
     inkscape:cy="5.5970519"
     inkscape:document-units="mm"
     inkscape:current-layer="layer1"
     inkscape:document-rotation="0"
     showgrid="false"
     showguides="true"
     inkscape:guide-bbox="true"
     inkscape:window-width="1920"
     inkscape:window-height="1027"
     inkscape:window-x="-8"
     inkscape:window-y="-8"
     inkscape:window-maximized="1" />
  <metadata
     id="metadata5">
    <rdf:RDF>
      <cc:Work
         rdf:about="">
        <dc:format>image/svg+xml</dc:format>
        <dc:type
           rdf:resource="http://purl.org/dc/dcmitype/StillImage" />
        <dc:title></dc:title>
      </cc:Work>
    </rdf:RDF>
  </metadata>
  <g
     inkscape:label="Layer 1"
     inkscape:groupmode="layer"
     id="layer1"
     transform="translate(5.7986151,-168.15043)">
    <path
       id="path905"
       style="color:#000000;font-style:normal;font-variant:normal;font-weight:normal;font-stretch:normal;font-size:medium;line-height:normal;font-family:sans-serif;font-variant-ligatures:normal;font-variant-position:normal;font-variant-caps:normal;font-variant-numeric:normal;font-variant-alternates:normal;font-variant-east-asian:normal;font-feature-settings:normal;font-variation-settings:normal;text-indent:0;text-align:start;text-decoration:none;text-decoration-line:none;text-decoration-style:solid;text-decoration-color:#000000;letter-spacing:normal;word-spacing:normal;text-transform:none;writing-mode:lr-tb;direction:ltr;text-orientation:mixed;dominant-baseline:auto;baseline-shift:baseline;text-anchor:start;white-space:normal;shape-padding:0;shape-margin:0;inline-size:0;clip-rule:nonzero;display:inline;overflow:visible;visibility:visible;isolation:auto;mix-blend-mode:normal;color-interpolation:sRGB;color-interpolation-filters:linearRGB;solid-color:#000000;solid-opacity:1;vector-effect:none;fill:#71757c;fill-opacity:1;fill-rule:nonzero;stroke:none;stroke-width:1.51181;stroke-linecap:round;stroke-linejoin:round;stroke-miterlimit:4;stroke-dasharray:none;stroke-dashoffset:0;stroke-opacity:1;color-rendering:auto;image-rendering:auto;shape-rendering:auto;text-rendering:auto;enable-background:accumulate;stop-color:#000000"
       d="m -15.111328,635.5293 a 0.75590551,0.75590551 0 0 0 -0.751953,0.60547 l -0.705078,3.49218 h -3.570313 a 0.75590551,0.75590551 0 0 0 -0.751953,0.75196 0.75590551,0.75590551 0 0 0 0.751953,0.7539 h 3.265625 l -0.896484,4.43555 h -3.394531 a 0.75590551,0.75590551 0 0 0 -0.751954,0.75976 0.75590551,0.75590551 0 0 0 0.751954,0.75391 h 3.08789 l -0.644531,3.18945 a 0.75590551,0.75590551 0 0 0 0.589844,0.89258 0.75590551,0.75590551 0 0 0 0.894531,-0.58984 l 0.705078,-3.49219 h 4.693359 l -0.644531,3.18945 a 0.75590551,0.75590551 0 0 0 0.589844,0.89258 0.75590551,0.75590551 0 0 0 0.894531,-0.58984 l 0.705078,-3.49219 h 3.5605471 a 0.75590551,0.75590551 0 0 0 0.7597657,-0.75391 0.75590551,0.75590551 0 0 0 -0.7597657,-0.75976 h -3.2539062 l 0.8945312,-4.43555 h 3.3847657 a 0.75590551,0.75590551 0 0 0 0.7617187,-0.7539 0.75590551,0.75590551 0 0 0 -0.7617187,-0.75196 h -3.0800782 l 0.6445313,-3.18945 a 0.75590551,0.75590551 0 0 0 -0.5898438,-0.89453 0.75590551,0.75590551 0 0 0 -0.140625,-0.0137 0.75590551,0.75590551 0 0 0 -0.7539062,0.60547 l -0.7050779,3.49218 h -4.69336 l 0.644532,-3.18945 a 0.75590551,0.75590551 0 0 0 -0.589844,-0.89453 0.75590551,0.75590551 0 0 0 -0.140625,-0.0137 z m -0.21875,5.60351 h 4.693359 l -0.896484,4.43555 h -4.691406 z"
       transform="scale(0.26458333)" />
  </g>
</svg>
