<?xml version="1.0" encoding="UTF-8" standalone="no"?>
<svg
   xmlns:dc="http://purl.org/dc/elements/1.1/"
   xmlns:cc="http://creativecommons.org/ns#"
   xmlns:rdf="http://www.w3.org/1999/02/22-rdf-syntax-ns#"
   xmlns:svg="http://www.w3.org/2000/svg"
   xmlns="http://www.w3.org/2000/svg"
   xmlns:sodipodi="http://sodipodi.sourceforge.net/DTD/sodipodi-0.dtd"
   xmlns:inkscape="http://www.inkscape.org/namespaces/inkscape"
   width="66.538567mm"
   height="66.538567mm"
   viewBox="0 0 66.538567 66.538567"
   version="1.1"
   id="svg891"
   inkscape:version="1.0.1 (3bc2e813f5, 2020-09-07)"
   sodipodi:docname="help_icon.svg">
  <defs
     id="defs885">
    <rect
       x="95.415222"
       y="89.802559"
       width="28.597839"
       height="18.708866"
       id="rect1472" />
  </defs>
  <sodipodi:namedview
     id="base"
     pagecolor="#ffffff"
     bordercolor="#666666"
     borderopacity="1.0"
     inkscape:pageopacity="0.0"
     inkscape:pageshadow="2"
     inkscape:zoom="0.49497475"
     inkscape:cx="137.86143"
     inkscape:cy="-141.01241"
     inkscape:document-units="mm"
     inkscape:current-layer="layer1"
     inkscape:document-rotation="0"
     showgrid="false"
     inkscape:snap-center="true"
     inkscape:snap-object-midpoints="true"
     showguides="true"
     inkscape:guide-bbox="true"
     inkscape:snap-intersection-paths="true"
     inkscape:object-paths="true"
     inkscape:snap-global="false"
     inkscape:window-width="1920"
     inkscape:window-height="1027"
     inkscape:window-x="-8"
     inkscape:window-y="-8"
     inkscape:window-maximized="1"
     inkscape:snap-bbox="true"
     inkscape:bbox-paths="true"
     inkscape:bbox-nodes="true"
     inkscape:snap-bbox-edge-midpoints="true"
     inkscape:snap-bbox-midpoints="false" />
  <metadata
     id="metadata888">
    <rdf:RDF>
      <cc:Work
         rdf:about="">
        <dc:format>image/svg+xml</dc:format>
        <dc:type
           rdf:resource="http://purl.org/dc/dcmitype/StillImage" />
        <dc:title></dc:title>
      </cc:Work>
    </rdf:RDF>
  </metadata>
  <g
     inkscape:label="Layer 1"
     inkscape:groupmode="layer"
     id="layer1"
     transform="translate(-21.627611,-83.336372)">
    <g
       id="g1729">
      <rect
         style="opacity:0.999;fill:none;fill-opacity:1;stroke:none;stroke-width:2.206;stroke-linecap:round;stroke-linejoin:round;stroke-miterlimit:4;stroke-dasharray:none;stroke-opacity:1"
         id="rect1563"
         width="66.538567"
         height="66.538567"
         x="21.627611"
         y="83.336372" />
      <rect
         style="opacity:0.999;fill:#202126;fill-opacity:1;stroke-width:0.893654;stroke-linecap:round;stroke-linejoin:round"
         id="rect1454"
         width="56.69643"
         height="34.384705"
         x="21.627611"
         y="103.48198"
         ry="2.6726983" />
      <g
         id="g1637">
        <g
           id="g1545"
           transform="matrix(0.94376929,0,0,0.94376929,-74.435111,9.0423874)"
           style="stroke-width:1.05959">
          <path
             style="color:#000000;font-style:normal;font-variant:normal;font-weight:normal;font-stretch:normal;font-size:medium;line-height:normal;font-family:sans-serif;font-variant-ligatures:normal;font-variant-position:normal;font-variant-caps:normal;font-variant-numeric:normal;font-variant-alternates:normal;font-variant-east-asian:normal;font-feature-settings:normal;font-variation-settings:normal;text-indent:0;text-align:start;text-decoration:none;text-decoration-line:none;text-decoration-style:solid;text-decoration-color:#000000;letter-spacing:normal;word-spacing:normal;text-transform:none;writing-mode:lr-tb;direction:ltr;text-orientation:mixed;dominant-baseline:auto;baseline-shift:baseline;text-anchor:start;white-space:normal;shape-padding:0;shape-margin:0;inline-size:0;clip-rule:nonzero;display:inline;overflow:visible;visibility:visible;opacity:0.999;isolation:auto;mix-blend-mode:normal;color-interpolation:sRGB;color-interpolation-filters:linearRGB;solid-color:#000000;solid-opacity:1;vector-effect:none;fill:#4cc9f0;fill-opacity:1;fill-rule:nonzero;stroke:none;stroke-width:2.33743;stroke-linecap:round;stroke-linejoin:round;stroke-miterlimit:4;stroke-dasharray:none;stroke-dashoffset:0;stroke-opacity:1;color-rendering:auto;image-rendering:auto;shape-rendering:auto;text-rendering:auto;enable-background:accumulate;stop-color:#000000;stop-opacity:1"
             d="m 152.34375,92.841797 c -11.00253,0 -19.94531,8.942783 -19.94531,19.945313 0,11.00253 8.94278,19.94531 19.94531,19.94531 11.00253,0 19.94531,-8.94278 19.94531,-19.94531 0,-11.00253 -8.94278,-19.945313 -19.94531,-19.945313 z m 0,2.207031 c 9.81032,10e-7 17.74024,7.927962 17.74023,17.738282 0,9.81032 -7.92991,17.74023 -17.74023,17.74023 -9.81032,0 -17.74023,-7.92991 -17.74023,-17.74023 -1e-5,-9.81032 7.92991,-17.738281 17.74023,-17.738282 z"
             id="path1510" />
          <path
             style="color:#000000;font-style:normal;font-variant:normal;font-weight:normal;font-stretch:normal;font-size:medium;line-height:normal;font-family:sans-serif;font-variant-ligatures:normal;font-variant-position:normal;font-variant-caps:normal;font-variant-numeric:normal;font-variant-alternates:normal;font-variant-east-asian:normal;font-feature-settings:normal;font-variation-settings:normal;text-indent:0;text-align:start;text-decoration:none;text-decoration-line:none;text-decoration-style:solid;text-decoration-color:#000000;letter-spacing:normal;word-spacing:normal;text-transform:none;writing-mode:lr-tb;direction:ltr;text-orientation:mixed;dominant-baseline:auto;baseline-shift:baseline;text-anchor:start;white-space:normal;shape-padding:0;shape-margin:0;inline-size:0;clip-rule:nonzero;display:inline;overflow:visible;visibility:visible;opacity:0.999;isolation:auto;mix-blend-mode:normal;color-interpolation:sRGB;color-interpolation-filters:linearRGB;solid-color:#000000;solid-opacity:1;vector-effect:none;fill:#4cc9f0;fill-opacity:1;fill-rule:nonzero;stroke:none;stroke-width:2.33743;stroke-linecap:round;stroke-linejoin:round;stroke-miterlimit:4;stroke-dasharray:none;stroke-dashoffset:0;stroke-opacity:1;color-rendering:auto;image-rendering:auto;shape-rendering:auto;text-rendering:auto;enable-background:accumulate;stop-color:#000000;stop-opacity:1"
             d="m 152.34375,102.59766 c -5.61481,-1e-5 -10.18946,4.57464 -10.18945,10.18945 0,5.61481 4.57464,10.19141 10.18945,10.19141 5.6148,-1e-5 10.18945,-4.57661 10.18945,-10.19141 1e-5,-5.61481 -4.57464,-10.18945 -10.18945,-10.18945 z m 0,2.20507 c 4.4226,1e-5 7.98438,3.56178 7.98437,7.98438 0,4.42259 -3.56178,7.98437 -7.98437,7.98437 -4.4226,1e-5 -7.98437,-3.56177 -7.98437,-7.98437 -10e-6,-4.4226 3.56177,-7.98438 7.98437,-7.98438 z"
             id="path1514" />
          <path
             id="path1516"
             style="fill:#4cc9f0;fill-opacity:1;stroke:none;stroke-width:1.05959px;stroke-linecap:butt;stroke-linejoin:miter;stroke-opacity:1"
             d="m 575.78711,350.89844 c -27.86299,0 -52.21224,15.18608 -65.25977,37.70898 l 31.91797,18.42774 0.0215,-0.0117 c -3.29311,5.67141 -5.19142,12.24624 -5.19141,19.25781 0,7.01217 1.89777,13.59085 5.19141,19.26367 l -0.0195,-0.0117 -24.75196,14.29102 -7.16601,4.13672 c 13.04806,22.52082 37.39638,37.70508 65.25781,37.70508 v -8.33399 -28.53125 c 14.22266,-2e-5 26.67041,-7.77584 33.33984,-19.28906 v 0.0215 l 31.91797,18.42774 c 6.42672,-11.09246 10.12696,-23.95676 10.12696,-37.67969 0,-13.72138 -3.69964,-26.58222 -10.125,-37.67383 l -31.91797,18.42774 v 0.0215 c -6.6691,-11.5123 -19.11816,-19.28516 -33.3418,-19.28516 z m 0,45.20703 c 16.71534,4e-5 30.17777,13.46044 30.17773,30.17578 0,16.7153 -13.46243,30.17773 -30.17773,30.17773 -16.71534,4e-5 -30.17774,-13.46239 -30.17773,-30.17773 -4e-5,-16.71534 13.46239,-30.17578 30.17773,-30.17578 z"
             transform="scale(0.26458333)" />
        </g>
      </g>
      <g
         id="g1631"
         transform="matrix(1.1484519,0,0,1.1484519,-50.370022,-8.5308587)"
         style="stroke-width:0.870733">
        <circle
           style="opacity:0.999;fill:#4cc9f0;fill-opacity:1;stroke:none;stroke-width:1.92086;stroke-linecap:round;stroke-linejoin:round;stroke-miterlimit:4;stroke-dasharray:none;stroke-opacity:1"
           id="path1547"
           cx="77.65078"
           cy="124.37283"
           r="9.0658646" />
        <g
           id="g1561"
           transform="translate(-9.0002619,0.40987759)"
           style="stroke-width:0.870733">
          <circle
             style="opacity:0.999;fill:#202126;fill-opacity:1;stroke:none;stroke-width:1.92086;stroke-linecap:round;stroke-linejoin:round;stroke-miterlimit:4;stroke-dasharray:none;stroke-opacity:1"
             id="path1549"
             cx="86.651039"
             cy="120.60676"
             r="1.3592757" />
          <rect
             style="opacity:0.999;fill:#202126;fill-opacity:1;stroke:none;stroke-width:1.92086;stroke-linecap:round;stroke-linejoin:round;stroke-miterlimit:4;stroke-dasharray:none;stroke-opacity:1"
             id="rect1551"
             width="1.908214"
             height="5.0972838"
             x="85.696938"
             y="123.58112" />
        </g>
      </g>
    </g>
  </g>
</svg>
