<?xml version="1.0" encoding="UTF-8" standalone="no"?>
<svg
   xmlns:dc="http://purl.org/dc/elements/1.1/"
   xmlns:cc="http://creativecommons.org/ns#"
   xmlns:rdf="http://www.w3.org/1999/02/22-rdf-syntax-ns#"
   xmlns:svg="http://www.w3.org/2000/svg"
   xmlns="http://www.w3.org/2000/svg"
   xmlns:sodipodi="http://sodipodi.sourceforge.net/DTD/sodipodi-0.dtd"
   xmlns:inkscape="http://www.inkscape.org/namespaces/inkscape"
   width="61.421131mm"
   height="61.421001mm"
   viewBox="0 0 61.421132 61.421002"
   version="1.1"
   id="svg914"
   inkscape:version="1.0.1 (3bc2e813f5, 2020-09-07)"
   sodipodi:docname="poll_icon.svg">
  <defs
     id="defs908" />
  <sodipodi:namedview
     id="base"
     pagecolor="#ffffff"
     bordercolor="#666666"
     borderopacity="1.0"
     inkscape:pageopacity="0.0"
     inkscape:pageshadow="2"
     inkscape:zoom="0.35"
     inkscape:cx="-207.37885"
     inkscape:cy="48.319433"
     inkscape:document-units="mm"
     inkscape:current-layer="layer1"
     inkscape:document-rotation="0"
     showgrid="false"
     inkscape:snap-global="true"
     inkscape:window-width="1920"
     inkscape:window-height="1027"
     inkscape:window-x="-8"
     inkscape:window-y="-8"
     inkscape:window-maximized="1" />
  <metadata
     id="metadata911">
    <rdf:RDF>
      <cc:Work
         rdf:about="">
        <dc:format>image/svg+xml</dc:format>
        <dc:type
           rdf:resource="http://purl.org/dc/dcmitype/StillImage" />
        <dc:title></dc:title>
      </cc:Work>
    </rdf:RDF>
  </metadata>
  <g
     inkscape:label="Layer 1"
     inkscape:groupmode="layer"
     id="layer1"
     transform="translate(45.33735,-149.05643)">
    <g
       id="g2462">
      <rect
         style="opacity:0.999;fill:none;fill-opacity:1;stroke:none;stroke-width:1.265;stroke-linecap:round;stroke-linejoin:round;stroke-miterlimit:4;stroke-dasharray:none;stroke-opacity:0"
         id="rect2452"
         width="61.421001"
         height="61.421001"
         x="-45.337349"
         y="149.05643" />
      <g
         id="g2450"
         transform="translate(-155.2836,39.55589)">
        <rect
           style="opacity:0.999;fill:#202126;fill-opacity:1;stroke-width:1.8;stroke-linejoin:round"
           id="rect2343"
           width="61.421127"
           height="43.585838"
           x="109.94625"
           y="109.50054"
           ry="3.4660945" />
        <path
           id="rect2363"
           style="opacity:0.999;fill:#4cc9f0;fill-opacity:1;stroke:none;stroke-width:1.8;stroke-linejoin:round"
           d="m 143.71688,128.69677 h 3.39227 c 0.91118,0 1.64473,0.73355 1.64473,1.64474 v 10.01285 c 0,0.91118 -0.73355,1.64473 -1.64473,1.64473 h -3.39227 c -0.91118,0 -1.64474,-0.73355 -1.64474,-1.64473 v -10.01285 c 0,-0.91119 0.73356,-1.64474 1.64474,-1.64474 z"
           sodipodi:nodetypes="sssssssss" />
        <path
           id="rect2373"
           style="opacity:0.999;fill:#4cc9f0;fill-opacity:1;stroke:none;stroke-width:1.8;stroke-linejoin:round"
           d="m 153.22929,124.35004 h 3.39226 c 0.91119,0 1.64474,0.73355 1.64474,1.64474 v 14.35958 c 0,0.91118 -0.73355,1.64473 -1.64474,1.64473 h -3.39226 c -0.91119,0 -1.64474,-0.73355 -1.64474,-1.64473 v -14.35958 c 0,-0.91119 0.73355,-1.64474 1.64474,-1.64474 z"
           sodipodi:nodetypes="sssssssss" />
        <path
           id="rect2375"
           style="opacity:0.999;fill:#4cc9f0;fill-opacity:1;stroke:none;stroke-width:1.8;stroke-linejoin:round"
           d="m 134.20447,120.61753 h 3.39227 c 0.91118,0 1.64474,0.73355 1.64474,1.64474 v 18.09209 c 0,0.91118 -0.73356,1.64473 -1.64474,1.64473 h -3.39227 c -0.91118,0 -1.64473,-0.73355 -1.64473,-1.64473 v -18.09209 c 0,-0.91119 0.73355,-1.64474 1.64473,-1.64474 z"
           sodipodi:nodetypes="sssssssss" />
        <path
           id="rect2377"
           style="opacity:0.999;fill:#4cc9f0;fill-opacity:1;stroke:none;stroke-width:1.8;stroke-linejoin:round"
           d="m 124.69208,131.67333 h 3.39227 c 0.91118,0 1.64474,0.73355 1.64474,1.64474 v 7.03629 c 0,0.91118 -0.73356,1.64473 -1.64474,1.64473 h -3.39227 c -0.91118,0 -1.64473,-0.73355 -1.64473,-1.64473 v -7.03629 c 0,-0.91119 0.73355,-1.64474 1.64473,-1.64474 z"
           sodipodi:nodetypes="sssssssss" />
        <path
           id="rect2439"
           style="opacity:0.999;fill:#202126;fill-opacity:1;stroke-width:1.8;stroke-linejoin:round"
           d="m 113.41235,155.4733 h 54.48893 c 1.92022,0 3.4661,1.54587 3.4661,3.46609 v 0.0377 c 0,1.92022 -1.54588,3.46609 -3.4661,3.46609 h -54.48893 c -1.92022,0 -3.4661,-1.54587 -3.4661,-3.46609 v -0.0377 c 0,-1.92022 1.54588,-3.46609 3.4661,-3.46609 z"
           sodipodi:nodetypes="sssssssss" />
      </g>
    </g>
  </g>
</svg>
