<?xml version="1.0" encoding="UTF-8" standalone="no"?>
<svg
   xmlns:dc="http://purl.org/dc/elements/1.1/"
   xmlns:cc="http://creativecommons.org/ns#"
   xmlns:rdf="http://www.w3.org/1999/02/22-rdf-syntax-ns#"
   xmlns:svg="http://www.w3.org/2000/svg"
   xmlns="http://www.w3.org/2000/svg"
   xmlns:sodipodi="http://sodipodi.sourceforge.net/DTD/sodipodi-0.dtd"
   xmlns:inkscape="http://www.inkscape.org/namespaces/inkscape"
   width="9.8319578mm"
   height="9.8324747mm"
   viewBox="0 0 9.8319578 9.8324747"
   version="1.1"
   id="svg8"
   inkscape:version="1.0.1 (3bc2e813f5, 2020-09-07)"
   sodipodi:docname="emoji_icon.svg">
  <defs
     id="defs2" />
  <sodipodi:namedview
     id="base"
     pagecolor="#ffffff"
     bordercolor="#666666"
     borderopacity="1.0"
     inkscape:pageopacity="0.0"
     inkscape:pageshadow="2"
     inkscape:zoom="5.6"
     inkscape:cx="4.3142845"
     inkscape:cy="25.180094"
     inkscape:document-units="mm"
     inkscape:current-layer="layer1"
     inkscape:document-rotation="0"
     showgrid="false"
     inkscape:snap-global="false"
     inkscape:window-width="1920"
     inkscape:window-height="1027"
     inkscape:window-x="-8"
     inkscape:window-y="-8"
     inkscape:window-maximized="1" />
  <metadata
     id="metadata5">
    <rdf:RDF>
      <cc:Work
         rdf:about="">
        <dc:format>image/svg+xml</dc:format>
        <dc:type
           rdf:resource="http://purl.org/dc/dcmitype/StillImage" />
        <dc:title></dc:title>
      </cc:Work>
    </rdf:RDF>
  </metadata>
  <g
     inkscape:label="Layer 1"
     inkscape:groupmode="layer"
     id="layer1"
     transform="translate(-45.306976,-209.68041)">
    <g
       id="g937"
       style="fill:#b3b3b3"
       transform="translate(-15.591518,3.5907738)">
      <g
         id="g926"
         style="opacity:1;fill:#b3b3b3">
        <path
           id="path928"
           style="color:#000000;font-style:normal;font-variant:normal;font-weight:normal;font-stretch:normal;font-size:medium;line-height:normal;font-family:sans-serif;font-variant-ligatures:normal;font-variant-position:normal;font-variant-caps:normal;font-variant-numeric:normal;font-variant-alternates:normal;font-variant-east-asian:normal;font-feature-settings:normal;font-variation-settings:normal;text-indent:0;text-align:start;text-decoration:none;text-decoration-line:none;text-decoration-style:solid;text-decoration-color:#000000;letter-spacing:normal;word-spacing:normal;text-transform:none;writing-mode:lr-tb;direction:ltr;text-orientation:mixed;dominant-baseline:auto;baseline-shift:baseline;text-anchor:start;white-space:normal;shape-padding:0;shape-margin:0;inline-size:0;clip-rule:nonzero;display:inline;overflow:visible;visibility:visible;isolation:auto;mix-blend-mode:normal;color-interpolation:sRGB;color-interpolation-filters:linearRGB;solid-color:#000000;solid-opacity:1;vector-effect:none;fill:#b3b3b3;fill-opacity:1;fill-rule:nonzero;stroke:none;stroke-width:0.623622;stroke-linecap:butt;stroke-linejoin:miter;stroke-miterlimit:4;stroke-dasharray:none;stroke-dashoffset:0;stroke-opacity:1;color-rendering:auto;image-rendering:auto;shape-rendering:auto;text-rendering:auto;enable-background:accumulate;stop-color:#000000;stop-opacity:1"
           d="m 18.578125,0.00195313 c -10.2565304,0 -18.58007813,8.32353637 -18.58007813,18.58007787 0,10.257562 8.32356663,18.582031 18.58007813,18.582031 10.257509,0 18.580078,-8.324506 18.580078,-18.582031 0,-10.2565415 -8.32255,-18.58007787 -18.580078,-18.58007787 z m 0,2.70898437 c 8.767918,0 15.871094,7.1040638 15.871094,15.8710935 0,8.767899 -7.103157,15.865235 -15.871094,15.865235 -8.7670261,0 -15.8632812,-7.097336 -15.8632812,-15.865235 0,-8.7669919 7.0962777,-15.8710935 15.8632812,-15.8710935 z"
           transform="matrix(0.26458333,0,0,0.26458333,60.899011,206.08912)" />
      </g>
      <path
         id="path865"
         style="fill:#b3b3b3;fill-opacity:1;stroke-width:0.999999"
         d="m 12.580078,15.080078 c -2.9570002,0 -4.3970311,3.16187 -4.4570311,3.296875 -0.091994,0.207118 -0.031595,0.4498 0.1445312,0.591797 0.1760126,0.14211 0.4263741,0.147531 0.609375,0.01563 0.01285,-0.0076 1.2621249,-0.902344 3.7031249,-0.902344 2.425999,0 3.675126,0.880397 3.703125,0.900391 0.08799,0.06614 0.192863,0.09961 0.296875,0.09961 0.109984,0 0.221489,-0.03832 0.3125,-0.109375 0.178016,-0.14211 0.236563,-0.385762 0.144531,-0.59375 v -0.002 c -0.05998,-0.134929 -1.499033,-3.296875 -4.457031,-3.296875 z m 12,0 c -2.957,0 -4.397031,3.16187 -4.457031,3.296875 -0.09199,0.207118 -0.03258,0.4498 0.144531,0.591797 0.174992,0.14211 0.42733,0.147531 0.611328,0.01563 0.01209,-0.0076 1.261173,-0.902344 3.701172,-0.902344 2.425999,0 3.675126,0.880397 3.703125,0.900391 0.08799,0.06614 0.192863,0.09961 0.296875,0.09961 0.109984,0 0.221489,-0.03832 0.3125,-0.109375 0.176995,-0.14211 0.237546,-0.385762 0.144531,-0.59375 v -0.002 c -0.05998,-0.134929 -1.499033,-3.296875 -4.457031,-3.296875 z M 9.2988281,21.546875 c -0.7077247,-0.03541 -1.71875,0.283192 -1.71875,2.033203 0,3.999988 4.5950009,9 10.9999999,9 6.404001,0 11,-5.000012 11,-9 0,-2.000012 -1.321,-2.132019 -2,-2 -2.972999,0.578003 -5.377001,1 -9,1 -3.622998,0 -6.027001,-0.421997 -8.9999999,-1 -0.084875,-0.01639 -0.1801464,-0.02814 -0.28125,-0.0332 z m 0.2285157,2.130859 c 0,0 3.0000002,1 9.0000002,1 6,0 9,-1 9,-1 0,0 -2.000002,4 -9,4 -6.999999,0 -9.0000002,-4 -9.0000002,-4 z"
         transform="matrix(0.26458333,0,0,0.26458333,60.899011,206.08912)" />
    </g>
  </g>
</svg>
